<svg width="18" height="21" viewBox="0 0 18 21" fill="none" xmlns="http://www.w3.org/2000/svg">
<path fill-rule="evenodd" clip-rule="evenodd" d="M8.54 20.351L8.61 20.391L8.638 20.407C8.74903 20.467 8.87327 20.4985 8.9995 20.4985C9.12573 20.4985 9.24997 20.467 9.361 20.407L9.389 20.392L9.46 20.351C9.85112 20.1191 10.2328 19.8716 10.604 19.609C11.5651 18.9305 12.463 18.1667 13.287 17.327C15.231 15.337 17.25 12.347 17.25 8.5C17.25 6.31196 16.3808 4.21354 14.8336 2.66637C13.2865 1.11919 11.188 0.25 9 0.25C6.81196 0.25 4.71354 1.11919 3.16637 2.66637C1.61919 4.21354 0.75 6.31196 0.75 8.5C0.75 12.346 2.77 15.337 4.713 17.327C5.53664 18.1667 6.43427 18.9304 7.395 19.609C7.76657 19.8716 8.14854 20.1191 8.54 20.351ZM9 11.5C9.79565 11.5 10.5587 11.1839 11.1213 10.6213C11.6839 10.0587 12 9.29565 12 8.5C12 7.70435 11.6839 6.94129 11.1213 6.37868C10.5587 5.81607 9.79565 5.5 9 5.5C8.20435 5.5 7.44129 5.81607 6.87868 6.37868C6.31607 6.94129 6 7.70435 6 8.5C6 9.29565 6.31607 10.0587 6.87868 10.6213C7.44129 11.1839 8.20435 11.5 9 11.5Z" fill="black"/>
</svg>
