<svg width="12" height="17" viewBox="0 0 12 17" fill="none" xmlns="http://www.w3.org/2000/svg">
<path d="M6 17C5.8 17 5.62857 16.9433 5.48571 16.83C5.34286 16.7167 5.23571 16.5679 5.16429 16.3838C4.89286 15.5904 4.55 14.8467 4.13572 14.1525C3.73571 13.4583 3.17143 12.6438 2.44286 11.7087C1.71429 10.7738 1.12143 9.88125 0.664286 9.03125C0.221429 8.18125 0 7.15417 0 5.95C0 4.2925 0.578572 2.89 1.73571 1.7425C2.90714 0.580833 4.32857 0 6 0C7.67143 0 9.08572 0.580833 10.2429 1.7425C11.4143 2.89 12 4.2925 12 5.95C12 7.23917 11.75 8.31583 11.25 9.18C10.7643 10.03 10.2 10.8729 9.55714 11.7087C8.78572 12.7288 8.2 13.5787 7.8 14.2587C7.41429 14.9246 7.09286 15.6329 6.83571 16.3838C6.76429 16.5821 6.65 16.7379 6.49286 16.8513C6.35 16.9504 6.18571 17 6 17ZM6 13.9612C6.24286 13.4796 6.51429 13.005 6.81429 12.5375C7.12857 12.07 7.58571 11.4467 8.18572 10.6675C8.8 9.87417 9.3 9.14458 9.68571 8.47875C10.0857 7.79875 10.2857 6.95583 10.2857 5.95C10.2857 4.77417 9.86429 3.77542 9.02143 2.95375C8.19286 2.11792 7.18572 1.7 6 1.7C4.81429 1.7 3.8 2.11792 2.95714 2.95375C2.12857 3.77542 1.71429 4.77417 1.71429 5.95C1.71429 6.95583 1.90714 7.79875 2.29286 8.47875C2.69286 9.14458 3.2 9.87417 3.81429 10.6675C4.41429 11.4467 4.86429 12.07 5.16429 12.5375C5.47857 13.005 5.75714 13.4796 6 13.9612ZM6 8.075C6.6 8.075 7.10714 7.86958 7.52143 7.45875C7.93571 7.04792 8.14286 6.545 8.14286 5.95C8.14286 5.355 7.93571 4.85208 7.52143 4.44125C7.10714 4.03042 6.6 3.825 6 3.825C5.4 3.825 4.89286 4.03042 4.47857 4.44125C4.06429 4.85208 3.85714 5.355 3.85714 5.95C3.85714 6.545 4.06429 7.04792 4.47857 7.45875C4.89286 7.86958 5.4 8.075 6 8.075Z" fill="black"/>
</svg>
