<svg width="10" height="17" viewBox="0 0 10 17" fill="none" xmlns="http://www.w3.org/2000/svg">
<path d="M3.95722 17V14.9694C3.01248 14.7806 2.19697 14.4185 1.5107 13.8833C0.824421 13.3481 0.320856 12.5926 0 11.6167L1.97861 10.9083C2.24599 11.6639 2.6426 12.2384 3.16845 12.6319C3.6943 13.0255 4.38503 13.2222 5.24064 13.2222C5.97148 13.2222 6.59091 13.0766 7.09893 12.7854C7.60695 12.4942 7.86096 12.0417 7.86096 11.4278C7.86096 10.8769 7.66488 10.44 7.27273 10.1174C6.88057 9.79468 5.97148 9.4287 4.54545 9.01944C3.01248 8.59444 1.96078 8.08681 1.39037 7.49653C0.819964 6.90625 0.534759 6.18611 0.534759 5.33611C0.534759 4.31296 0.909091 3.51806 1.65775 2.95139C2.40642 2.38472 3.17291 2.06204 3.95722 1.98333V0H6.09626V1.98333C6.98752 2.10926 7.72282 2.39653 8.30214 2.84514C8.88146 3.29375 9.30481 3.84074 9.57219 4.48611L7.59358 5.24167C7.37968 4.73796 7.07665 4.36019 6.68449 4.10833C6.29234 3.85648 5.75758 3.73056 5.08021 3.73056C4.2959 3.73056 3.69875 3.88403 3.28877 4.19097C2.87879 4.49792 2.6738 4.87963 2.6738 5.33611C2.6738 5.85556 2.94118 6.26481 3.47594 6.56389C4.01069 6.86296 4.93761 7.17778 6.25668 7.50833C7.48663 7.82315 8.418 8.32292 9.0508 9.00764C9.6836 9.69236 10 10.4833 10 11.3806C10 12.4981 9.62567 13.3481 8.87701 13.9306C8.12834 14.513 7.20143 14.875 6.09626 15.0167V17H3.95722Z" fill="black"/>
</svg>
