<svg width="50" height="50" viewBox="0 0 50 50" fill="none" xmlns="http://www.w3.org/2000/svg">
<path fill-rule="evenodd" clip-rule="evenodd" d="M4.6875 25C4.6875 13.7812 13.7812 4.6875 25 4.6875C36.2187 4.6875 45.3125 13.7812 45.3125 25C45.3125 36.2187 36.2187 45.3125 25 45.3125C13.7812 45.3125 4.6875 36.2187 4.6875 25ZM25 17.1875C25.4144 17.1875 25.8118 17.3521 26.1049 17.6451C26.3979 17.9382 26.5625 18.3356 26.5625 18.75V26.5625C26.5625 26.9769 26.3979 27.3743 26.1049 27.6674C25.8118 27.9604 25.4144 28.125 25 28.125C24.5856 28.125 24.1882 27.9604 23.8951 27.6674C23.6021 27.3743 23.4375 26.9769 23.4375 26.5625V18.75C23.4375 18.3356 23.6021 17.9382 23.8951 17.6451C24.1882 17.3521 24.5856 17.1875 25 17.1875ZM25 34.375C25.4144 34.375 25.8118 34.2104 26.1049 33.9174C26.3979 33.6243 26.5625 33.2269 26.5625 32.8125C26.5625 32.3981 26.3979 32.0007 26.1049 31.7076C25.8118 31.4146 25.4144 31.25 25 31.25C24.5856 31.25 24.1882 31.4146 23.8951 31.7076C23.6021 32.0007 23.4375 32.3981 23.4375 32.8125C23.4375 33.2269 23.6021 33.6243 23.8951 33.9174C24.1882 34.2104 24.5856 34.375 25 34.375Z" fill="#D3FA0D"/>
</svg>
