<svg width="14" height="18" viewBox="0 0 14 18" fill="none" xmlns="http://www.w3.org/2000/svg">
<path fill-rule="evenodd" clip-rule="evenodd" d="M3.18141 3.85714C3.18141 2.83416 3.58373 1.85308 4.29985 1.12973C5.01597 0.406376 5.98725 0 7 0C8.01275 0 8.98403 0.406376 9.70015 1.12973C10.4163 1.85308 10.8186 2.83416 10.8186 3.85714C10.8186 4.88012 10.4163 5.86119 9.70015 6.58455C8.98403 7.3079 8.01275 7.71428 7 7.71428C5.98725 7.71428 5.01597 7.3079 4.29985 6.58455C3.58373 5.86119 3.18141 4.88012 3.18141 3.85714ZM0.000101323 15.9471C0.0287155 14.091 0.778789 12.3206 2.08841 11.0182C3.39804 9.7158 5.16217 8.98581 7 8.98581C8.83784 8.98581 10.602 9.7158 11.9116 11.0182C13.2212 12.3206 13.9713 14.091 13.9999 15.9471C14.0021 16.0721 13.9682 16.195 13.9023 16.3008C13.8365 16.4066 13.7415 16.4907 13.6291 16.5428C11.5494 17.506 9.2879 18.0031 7 18C4.63587 18 2.38969 17.4788 0.370929 16.5428C0.258481 16.4907 0.163516 16.4066 0.0976553 16.3008C0.0317947 16.195 -0.00210602 16.0721 0.000101323 15.9471Z" fill="black"/>
</svg>
