<svg width="18" height="19" viewBox="0 0 18 19" fill="none" xmlns="http://www.w3.org/2000/svg">
<path d="M9.69227 10.1923C9.69227 10.3759 9.61933 10.552 9.4895 10.6818C9.35966 10.8117 9.18357 10.8846 8.99996 10.8846C8.81635 10.8846 8.64026 10.8117 8.51043 10.6818C8.38059 10.552 8.30765 10.3759 8.30765 10.1923C8.30765 10.0087 8.38059 9.83261 8.51043 9.70277C8.64026 9.57294 8.81635 9.5 8.99996 9.5C9.18357 9.5 9.35966 9.57294 9.4895 9.70277C9.61933 9.83261 9.69227 10.0087 9.69227 10.1923ZM4.84612 12.9615C5.02973 12.9615 5.20582 12.8886 5.33565 12.7588C5.46548 12.6289 5.53842 12.4528 5.53842 12.2692C5.53842 12.0856 5.46548 11.9095 5.33565 11.7797C5.20582 11.6499 5.02973 11.5769 4.84612 11.5769C4.6625 11.5769 4.48641 11.6499 4.35658 11.7797C4.22675 11.9095 4.15381 12.0856 4.15381 12.2692C4.15381 12.4528 4.22675 12.6289 4.35658 12.7588C4.48641 12.8886 4.6625 12.9615 4.84612 12.9615ZM5.53842 14.3462C5.53842 14.5298 5.46548 14.7059 5.33565 14.8357C5.20582 14.9655 5.02973 15.0385 4.84612 15.0385C4.6625 15.0385 4.48641 14.9655 4.35658 14.8357C4.22675 14.7059 4.15381 14.5298 4.15381 14.3462C4.15381 14.1625 4.22675 13.9865 4.35658 13.8566C4.48641 13.7268 4.6625 13.6538 4.84612 13.6538C5.02973 13.6538 5.20582 13.7268 5.33565 13.8566C5.46548 13.9865 5.53842 14.1625 5.53842 14.3462ZM6.92304 12.9615C7.10665 12.9615 7.28274 12.8886 7.41257 12.7588C7.54241 12.6289 7.61535 12.4528 7.61535 12.2692C7.61535 12.0856 7.54241 11.9095 7.41257 11.7797C7.28274 11.6499 7.10665 11.5769 6.92304 11.5769C6.73943 11.5769 6.56334 11.6499 6.4335 11.7797C6.30367 11.9095 6.23073 12.0856 6.23073 12.2692C6.23073 12.4528 6.30367 12.6289 6.4335 12.7588C6.56334 12.8886 6.73943 12.9615 6.92304 12.9615ZM7.61535 14.3462C7.61535 14.5298 7.54241 14.7059 7.41257 14.8357C7.28274 14.9655 7.10665 15.0385 6.92304 15.0385C6.73943 15.0385 6.56334 14.9655 6.4335 14.8357C6.30367 14.7059 6.23073 14.5298 6.23073 14.3462C6.23073 14.1625 6.30367 13.9865 6.4335 13.8566C6.56334 13.7268 6.73943 13.6538 6.92304 13.6538C7.10665 13.6538 7.28274 13.7268 7.41257 13.8566C7.54241 13.9865 7.61535 14.1625 7.61535 14.3462ZM8.99996 12.9615C9.18357 12.9615 9.35966 12.8886 9.4895 12.7588C9.61933 12.6289 9.69227 12.4528 9.69227 12.2692C9.69227 12.0856 9.61933 11.9095 9.4895 11.7797C9.35966 11.6499 9.18357 11.5769 8.99996 11.5769C8.81635 11.5769 8.64026 11.6499 8.51043 11.7797C8.38059 11.9095 8.30765 12.0856 8.30765 12.2692C8.30765 12.4528 8.38059 12.6289 8.51043 12.7588C8.64026 12.8886 8.81635 12.9615 8.99996 12.9615ZM9.69227 14.3462C9.69227 14.5298 9.61933 14.7059 9.4895 14.8357C9.35966 14.9655 9.18357 15.0385 8.99996 15.0385C8.81635 15.0385 8.64026 14.9655 8.51043 14.8357C8.38059 14.7059 8.30765 14.5298 8.30765 14.3462C8.30765 14.1625 8.38059 13.9865 8.51043 13.8566C8.64026 13.7268 8.81635 13.6538 8.99996 13.6538C9.18357 13.6538 9.35966 13.7268 9.4895 13.8566C9.61933 13.9865 9.69227 14.1625 9.69227 14.3462ZM11.0769 12.9615C11.2605 12.9615 11.4366 12.8886 11.5664 12.7588C11.6963 12.6289 11.7692 12.4528 11.7692 12.2692C11.7692 12.0856 11.6963 11.9095 11.5664 11.7797C11.4366 11.6499 11.2605 11.5769 11.0769 11.5769C10.8933 11.5769 10.7172 11.6499 10.5874 11.7797C10.4575 11.9095 10.3846 12.0856 10.3846 12.2692C10.3846 12.4528 10.4575 12.6289 10.5874 12.7588C10.7172 12.8886 10.8933 12.9615 11.0769 12.9615ZM11.7692 14.3462C11.7692 14.5298 11.6963 14.7059 11.5664 14.8357C11.4366 14.9655 11.2605 15.0385 11.0769 15.0385C10.8933 15.0385 10.7172 14.9655 10.5874 14.8357C10.4575 14.7059 10.3846 14.5298 10.3846 14.3462C10.3846 14.1625 10.4575 13.9865 10.5874 13.8566C10.7172 13.7268 10.8933 13.6538 11.0769 13.6538C11.2605 13.6538 11.4366 13.7268 11.5664 13.8566C11.6963 13.9865 11.7692 14.1625 11.7692 14.3462ZM13.1538 12.9615C13.3374 12.9615 13.5135 12.8886 13.6433 12.7588C13.7732 12.6289 13.8461 12.4528 13.8461 12.2692C13.8461 12.0856 13.7732 11.9095 13.6433 11.7797C13.5135 11.6499 13.3374 11.5769 13.1538 11.5769C12.9702 11.5769 12.7941 11.6499 12.6643 11.7797C12.5344 11.9095 12.4615 12.0856 12.4615 12.2692C12.4615 12.4528 12.5344 12.6289 12.6643 12.7588C12.7941 12.8886 12.9702 12.9615 13.1538 12.9615ZM11.7692 10.1923C11.7692 10.3759 11.6963 10.552 11.5664 10.6818C11.4366 10.8117 11.2605 10.8846 11.0769 10.8846C10.8933 10.8846 10.7172 10.8117 10.5874 10.6818C10.4575 10.552 10.3846 10.3759 10.3846 10.1923C10.3846 10.0087 10.4575 9.83261 10.5874 9.70277C10.7172 9.57294 10.8933 9.5 11.0769 9.5C11.2605 9.5 11.4366 9.57294 11.5664 9.70277C11.6963 9.83261 11.7692 10.0087 11.7692 10.1923ZM13.1538 10.8846C13.3374 10.8846 13.5135 10.8117 13.6433 10.6818C13.7732 10.552 13.8461 10.3759 13.8461 10.1923C13.8461 10.0087 13.7732 9.83261 13.6433 9.70277C13.5135 9.57294 13.3374 9.5 13.1538 9.5C12.9702 9.5 12.7941 9.57294 12.6643 9.70277C12.5344 9.83261 12.4615 10.0087 12.4615 10.1923C12.4615 10.3759 12.5344 10.552 12.6643 10.6818C12.7941 10.8117 12.9702 10.8846 13.1538 10.8846Z" fill="black"/>
<path fill-rule="evenodd" clip-rule="evenodd" d="M4.15385 0.5C4.33746 0.5 4.51355 0.572939 4.64338 0.702772C4.77321 0.832605 4.84615 1.0087 4.84615 1.19231V2.57692H13.1538V1.19231C13.1538 1.0087 13.2268 0.832605 13.3566 0.702772C13.4865 0.572939 13.6625 0.5 13.8462 0.5C14.0298 0.5 14.2059 0.572939 14.3357 0.702772C14.4655 0.832605 14.5385 1.0087 14.5385 1.19231V2.57692H15.2308C15.9652 2.57692 16.6696 2.86868 17.1889 3.38801C17.7082 3.90734 18 4.61171 18 5.34615V15.7308C18 16.4652 17.7082 17.1696 17.1889 17.6889C16.6696 18.2082 15.9652 18.5 15.2308 18.5H2.76923C2.03479 18.5 1.33042 18.2082 0.811089 17.6889C0.291757 17.1696 0 16.4652 0 15.7308V5.34615C0 4.61171 0.291757 3.90734 0.811089 3.38801C1.33042 2.86868 2.03479 2.57692 2.76923 2.57692H3.46154V1.19231C3.46154 1.0087 3.53448 0.832605 3.66431 0.702772C3.79414 0.572939 3.97023 0.5 4.15385 0.5ZM16.6154 8.80769C16.6154 8.44047 16.4695 8.08829 16.2098 7.82862C15.9502 7.56896 15.598 7.42308 15.2308 7.42308H2.76923C2.40201 7.42308 2.04983 7.56896 1.79016 7.82862C1.53049 8.08829 1.38462 8.44047 1.38462 8.80769V15.7308C1.38462 16.098 1.53049 16.4502 1.79016 16.7098C2.04983 16.9695 2.40201 17.1154 2.76923 17.1154H15.2308C15.598 17.1154 15.9502 16.9695 16.2098 16.7098C16.4695 16.4502 16.6154 16.098 16.6154 15.7308V8.80769Z" fill="black"/>
</svg>
